<svg width="30" height="30" viewBox="0 0 30 30" fill="none" xmlns="http://www.w3.org/2000/svg">
<path d="M13.6666 4.3335V9.66683C13.6666 10.7277 13.2452 11.7451 12.495 12.4953C11.7449 13.2454 10.7275 13.6668 9.66658 13.6668H4.33325C3.27239 13.6668 2.25497 13.2454 1.50482 12.4953C0.754679 11.7451 0.333252 10.7277 0.333252 9.66683V4.3335C0.333252 3.27263 0.754679 2.25521 1.50482 1.50507C2.25497 0.754923 3.27239 0.333496 4.33325 0.333496H9.66658C10.7275 0.333496 11.7449 0.754923 12.495 1.50507C13.2452 2.25521 13.6666 3.27263 13.6666 4.3335ZM25.6666 0.333496H20.3333C19.2724 0.333496 18.255 0.754923 17.5048 1.50507C16.7547 2.25521 16.3333 3.27263 16.3333 4.3335V9.66683C16.3333 10.7277 16.7547 11.7451 17.5048 12.4953C18.255 13.2454 19.2724 13.6668 20.3333 13.6668H25.6666C26.7274 13.6668 27.7449 13.2454 28.495 12.4953C29.2452 11.7451 29.6666 10.7277 29.6666 9.66683V4.3335C29.6666 3.27263 29.2452 2.25521 28.495 1.50507C27.7449 0.754923 26.7274 0.333496 25.6666 0.333496ZM9.66658 16.3335H4.33325C3.27239 16.3335 2.25497 16.7549 1.50482 17.5051C0.754679 18.2552 0.333252 19.2726 0.333252 20.3335V25.6668C0.333252 26.7277 0.754679 27.7451 1.50482 28.4953C2.25497 29.2454 3.27239 29.6668 4.33325 29.6668H9.66658C10.7275 29.6668 11.7449 29.2454 12.495 28.4953C13.2452 27.7451 13.6666 26.7277 13.6666 25.6668V20.3335C13.6666 19.2726 13.2452 18.2552 12.495 17.5051C11.7449 16.7549 10.7275 16.3335 9.66658 16.3335ZM25.6666 16.3335H20.3333C19.2724 16.3335 18.255 16.7549 17.5048 17.5051C16.7547 18.2552 16.3333 19.2726 16.3333 20.3335V25.6668C16.3333 26.7277 16.7547 27.7451 17.5048 28.4953C18.255 29.2454 19.2724 29.6668 20.3333 29.6668H25.6666C26.7274 29.6668 27.7449 29.2454 28.495 28.4953C29.2452 27.7451 29.6666 26.7277 29.6666 25.6668V20.3335C29.6666 19.2726 29.2452 18.2552 28.495 17.5051C27.7449 16.7549 26.7274 16.3335 25.6666 16.3335Z" fill="#D1D1D1"/>
</svg>
