<svg width="32" height="32" viewBox="0 0 32 32" fill="none" xmlns="http://www.w3.org/2000/svg">
<path d="M25.3333 1.3335H6.66658C6.34709 1.33717 6.03954 1.45546 5.79992 1.66683C6.75077 2.00136 7.58735 2.59851 8.21271 3.38905C8.83806 4.1796 9.22659 5.13117 9.33325 6.1335C9.35364 6.31069 9.35364 6.48964 9.33325 6.66683V29.3335C9.33262 29.5885 9.40514 29.8384 9.54221 30.0534C9.67928 30.2685 9.87514 30.4397 10.1066 30.5468C10.3386 30.6536 10.5963 30.6916 10.8493 30.6561C11.1022 30.6206 11.3396 30.5133 11.5333 30.3468L15.3333 27.0935L19.1333 30.3468C19.3748 30.5534 19.6821 30.6669 19.9999 30.6669C20.3177 30.6669 20.6251 30.5534 20.8666 30.3468L24.6666 27.0935L28.4666 30.3468C28.7081 30.5534 29.0155 30.6669 29.3333 30.6668C29.5261 30.6655 29.7167 30.6246 29.8932 30.5468C30.1247 30.4397 30.3206 30.2685 30.4576 30.0534C30.5947 29.8384 30.6672 29.5885 30.6666 29.3335V6.66683C30.6666 5.25234 30.1047 3.89579 29.1045 2.89559C28.1043 1.8954 26.7477 1.3335 25.3333 1.3335ZM23.9999 20.0002H15.9999C15.6463 20.0002 15.3072 19.8597 15.0571 19.6096C14.8071 19.3596 14.6666 19.0205 14.6666 18.6668C14.6666 18.3132 14.8071 17.9741 15.0571 17.724C15.3072 17.474 15.6463 17.3335 15.9999 17.3335H23.9999C24.3535 17.3335 24.6927 17.474 24.9427 17.724C25.1928 17.9741 25.3333 18.3132 25.3333 18.6668C25.3333 19.0205 25.1928 19.3596 24.9427 19.6096C24.6927 19.8597 24.3535 20.0002 23.9999 20.0002ZM23.9999 14.6668H15.9999C15.6463 14.6668 15.3072 14.5264 15.0571 14.2763C14.8071 14.0263 14.6666 13.6871 14.6666 13.3335C14.6666 12.9799 14.8071 12.6407 15.0571 12.3907C15.3072 12.1406 15.6463 12.0002 15.9999 12.0002H23.9999C24.3535 12.0002 24.6927 12.1406 24.9427 12.3907C25.1928 12.6407 25.3333 12.9799 25.3333 13.3335C25.3333 13.6871 25.1928 14.0263 24.9427 14.2763C24.6927 14.5264 24.3535 14.6668 23.9999 14.6668ZM23.9999 9.3335H15.9999C15.6463 9.3335 15.3072 9.19302 15.0571 8.94297C14.8071 8.69292 14.6666 8.35379 14.6666 8.00016C14.6666 7.64654 14.8071 7.3074 15.0571 7.05735C15.3072 6.80731 15.6463 6.66683 15.9999 6.66683H23.9999C24.3535 6.66683 24.6927 6.80731 24.9427 7.05735C25.1928 7.3074 25.3333 7.64654 25.3333 8.00016C25.3333 8.35379 25.1928 8.69292 24.9427 8.94297C24.6927 9.19302 24.3535 9.3335 23.9999 9.3335ZM6.66658 6.66683V17.3335H2.66659C2.31296 17.3335 1.97382 17.193 1.72378 16.943C1.47373 16.6929 1.33325 16.3538 1.33325 16.0002V6.66683C1.33325 6.48016 1.33325 6.30683 1.33325 6.1335C1.40398 5.42625 1.75276 4.77607 2.30286 4.32598C2.85297 3.8759 3.55934 3.66277 4.26659 3.7335C4.97383 3.80422 5.62401 4.153 6.0741 4.70311C6.52419 5.25321 6.73731 5.95959 6.66658 6.66683Z" fill="#D1D1D1"/>
</svg>
