<svg width="28" height="28" viewBox="0 0 28 28" fill="none" xmlns="http://www.w3.org/2000/svg">
<path d="M13.9994 0C12.9733 0 11.9466 0.396442 11.1655 1.17769L3.24794 9.27893C1.73883 10.7882 0.847414 11.6886 0.406289 12.9116C-0.0260379 14.1102 5.868e-05 15.5098 5.868e-05 18.0051V23.9971C5.868e-05 26.223 1.80339 27.9989 4.00181 27.9989H7.99965L7.9977 19.9973C7.99627 17.7986 9.78136 15.9994 12.0034 15.9994H15.9953C18.2174 15.9994 20.0024 17.7986 20.001 19.9973L19.999 27.9989H23.9969C26.1953 27.9989 27.9986 26.223 27.9986 23.9971V18.0051C27.9986 15.5098 28.0247 14.1102 27.5924 12.9116C27.1513 11.6886 26.2599 10.7882 24.7508 9.27893L16.8332 1.17769C16.0521 0.396442 15.0254 0 13.9994 0ZM12.0034 18.0012C10.9016 18.0012 9.99919 18.872 9.99955 19.9973L10.0016 27.9989H17.9972L17.9992 19.9973C17.9996 18.872 17.0972 18.0012 15.9954 18.0012H12.0034Z" fill="#D1D1D1"/>
</svg>
