<svg width="24" height="28" viewBox="0 0 24 28" fill="none" xmlns="http://www.w3.org/2000/svg">
<path d="M16 27.3332C14.4177 27.3332 12.871 26.864 11.5554 25.9849C10.2398 25.1059 9.21447 23.8564 8.60896 22.3946C8.00346 20.9328 7.84504 19.3243 8.15372 17.7724C8.4624 16.2206 9.22433 14.7951 10.3431 13.6763C11.462 12.5575 12.8874 11.7956 14.4393 11.4869C15.9911 11.1782 17.5997 11.3366 19.0615 11.9421C20.5233 12.5476 21.7727 13.573 22.6518 14.8886C23.5308 16.2042 24 17.7509 24 19.3332C24 21.4549 23.1571 23.4897 21.6569 24.99C20.1566 26.4903 18.1217 27.3332 16 27.3332ZM7.33333 9.80917C11.384 9.80917 14.6667 7.7625 14.6667 5.2385C14.6667 2.7145 11.384 0.666504 7.33333 0.666504C3.28267 0.666504 0 2.71317 0 5.2385C0 7.76384 3.28267 9.80917 7.33333 9.80917ZM6.23067 15.0665C6.6858 14.0344 7.30142 13.0808 8.05467 12.2412C7.81467 12.2558 7.58 12.2852 7.33333 12.2852C3.28267 12.2852 0 10.2385 0 7.7145V10.5705C0 12.8598 2.70933 14.7318 6.23067 15.0665ZM5.51867 21.2745C5.39796 20.6344 5.33593 19.9846 5.33333 19.3332C5.33333 19.0132 5.35333 18.6972 5.38133 18.3838C2.28267 17.8518 0 16.1012 0 13.9998V16.8572C0 18.9892 2.34933 20.7692 5.51867 21.2745ZM7.33333 27.3332C7.81426 27.3328 8.29472 27.303 8.772 27.2438C8.44189 26.9339 8.14147 26.5937 7.87467 26.2278C7.4021 25.6736 6.98708 25.0727 6.636 24.4345C2.91733 24.2132 0 22.2812 0 19.9052V22.7612C0 25.2865 3.28267 27.3332 7.33333 27.3332Z" fill="#D1D1D1"/>
</svg>
